# xmcd
#
# Track frame offsets:
#	150
#	18041
#	32593
#	53817
#	70336
#	91411
#	109842
#	124188
#	147861
#	169190
#	185535
#	206679
#	229478
#	247080
#	268465
#	286820
#	306519
#
# Disc length: 4364 seconds
#
# Revision: 0
# Processed by: cddbd v1.5.2PL0 Copyright (c) Steve Scherf et al.
# Submitted via: dBpowerAMP V4.0
#
DISCID=03110a11
DTITLE=sir charles - blus
DYEAR=1900
DGENRE=Blues
TTITLE0=me
TTITLE1=you
TTITLE2=hi
TTITLE3=so
TTITLE4=dont
TTITLE5=pee
TTITLE6=some
TTITLE7=lovimg you
TTITLE8=hate you
TTITLE9=suck me
TTITLE10=kill me
TTITLE11=do do
TTITLE12=coeneka
TTITLE13=eric
TTITLE14=majestic
TTITLE15=denekque
TTITLE16=kizzy
EXTD=sir charles
EXTT0=
EXTT1=
EXTT2=
EXTT3=
EXTT4=
EXTT5=
EXTT6=
EXTT7=
EXTT8=
EXTT9=
EXTT10=
EXTT11=
EXTT12=
EXTT13=
EXTT14=
EXTT15=
EXTT16=
PLAYORDER=
